<?xml version="1.0" encoding="UTF-8"?>
<svg version="1.1" xmlns="http://www.w3.org/2000/svg" width="80" height="80">
<path d="M0 0 C26.4 0 52.8 0 80 0 C80 26.4 80 52.8 80 80 C53.6 80 27.2 80 0 80 C0 53.6 0 27.2 0 0 Z " fill="#FDFDFC" transform="translate(0,0)"/>
<path d="M0 0 C0.33 0.99 0.66 1.98 1 3 C0.67 3.66 0.34 4.32 0 5 C-0.15266612 6.73868744 -0.24932596 8.48247501 -0.31640625 10.2265625 C-0.35830078 11.2578125 -0.40019531 12.2890625 -0.44335938 13.3515625 C-0.48267578 14.43179687 -0.52199219 15.51203125 -0.5625 16.625 C-0.60568359 17.71296875 -0.64886719 18.8009375 -0.69335938 19.921875 C-0.7996453 22.6144517 -0.90168057 25.30712253 -1 28 C2.24594592 24.8390543 4.83125797 21.9950511 7 18 C7.33 18.99 7.66 19.98 8 21 C8.12375 20.278125 8.2475 19.55625 8.375 18.8125 C9.43113977 14.05987101 10.50854113 11.49145887 14 8 C14 11.96 14 15.92 14 20 C18.29 20 22.58 20 27 20 C26 23 26 23 24.375 24 C22.42095353 24.82275641 20.46122214 25.63199805 18.5 26.4375 C15.08302489 27.80779263 15.08302489 27.80779263 12.75 29.6875 C11 31 11 31 8 31 C8 33.64 8 36.28 8 39 C8.63808594 38.98839844 9.27617188 38.97679687 9.93359375 38.96484375 C10.75988281 38.95582031 11.58617187 38.94679687 12.4375 38.9375 C13.67306641 38.92009766 13.67306641 38.92009766 14.93359375 38.90234375 C17 39 17 39 18 40 C18.7734375 39.7525 18.7734375 39.7525 19.5625 39.5 C23.18810219 38.75628673 26.34801854 39.45220278 30 40 C29.67 40.99 29.34 41.98 29 43 C28.2575 43.12375 27.515 43.2475 26.75 43.375 C23.16177975 44.1905046 20.56630394 45.65469272 17.4375 47.5625 C14.78660128 49.12585053 12.45182486 49.91183905 9.4375 50.5 C7.00585058 50.88942398 7.00585058 50.88942398 5 52 C2.0625 52.25 2.0625 52.25 -1 52 C-1.474375 51.484375 -1.94875 50.96875 -2.4375 50.4375 C-2.953125 49.963125 -3.46875 49.48875 -4 49 C-6.34185264 49.26698646 -8.67761869 49.5973828 -11 50 C-9.72382813 50.27714844 -8.44765625 50.55429687 -7.1328125 50.83984375 C-5.46351107 51.20558957 -3.7942419 51.57148262 -2.125 51.9375 C-1.28324219 52.11990234 -0.44148438 52.30230469 0.42578125 52.49023438 C1.23144531 52.66748047 2.03710938 52.84472656 2.8671875 53.02734375 C3.61081543 53.18968506 4.35444336 53.35202637 5.12060547 53.51928711 C7 54 7 54 9 55 C9 55.66 9 56.32 9 57 C9.99 57.33 10.98 57.66 12 58 C11.34 58 10.68 58 10 58 C10 58.66 10 59.32 10 60 C9.01 60 8.02 60 7 60 C7 60.66 7 61.32 7 62 C4.03 61.34 1.06 60.68 -2 60 C-2 60.66 -2 61.32 -2 62 C-3.98 62.495 -3.98 62.495 -6 63 C-5.62746094 63.55429688 -5.25492188 64.10859375 -4.87109375 64.6796875 C-4.16146484 65.76636719 -4.16146484 65.76636719 -3.4375 66.875 C-2.96183594 67.59429687 -2.48617187 68.31359375 -1.99609375 69.0546875 C-1.66738281 69.69664063 -1.33867188 70.33859375 -1 71 C-1.33 71.66 -1.66 72.32 -2 73 C-7.75 68.375 -7.75 68.375 -10 65 C-10.99 65.99 -10.99 65.99 -12 67 C-12.33 64.69 -12.66 62.38 -13 60 C-13.66 60.66 -14.32 61.32 -15 62 C-19.88764045 57.43820225 -19.88764045 57.43820225 -21 54 C-20.70247504 51.02475039 -20.33879403 48.67758805 -19 46 C-19.66 45.67 -20.32 45.34 -21 45 C-21.703125 43.0390625 -21.703125 43.0390625 -22.25 40.625 C-22.44078125 39.83351562 -22.6315625 39.04203125 -22.828125 38.2265625 C-23 36 -23 36 -21 33 C-19.98440599 31.00787329 -18.98210371 29.0088485 -18 27 C-16.53273202 30.81489674 -17.56663581 33.29011622 -19 37 C-18.01 36.505 -18.01 36.505 -17 36 C-16.86271484 35.13157471 -16.72542969 34.26314941 -16.58398438 33.3684082 C-15.91839146 29.52928386 -14.46618645 26.50246231 -12.65625 23.10546875 C-12.32709595 22.47264481 -11.99794189 21.83982086 -11.65881348 21.18782043 C-10.61360881 19.18355655 -9.5567933 17.18567301 -8.5 15.1875 C-7.78964259 13.82654848 -7.0799998 12.46522371 -6.37109375 11.10351562 C-5.69594685 9.81216815 -5.02018733 8.52114074 -4.34375 7.23046875 C-3.86403748 6.31493477 -3.86403748 6.31493477 -3.37463379 5.38090515 C-1.11881667 1.11881667 -1.11881667 1.11881667 0 0 Z " fill="#CDBEAD" transform="translate(39,3)"/>
<path d="M0 0 C2 1 2 1 2.875 2.9375 C4.24233928 5.44428867 5.45457796 5.85045456 8 7 C8.33 7.66 8.66 8.32 9 9 C10.89533342 9.46523063 10.89533342 9.46523063 13.0625 9.625 C14.361875 9.74875 15.66125 9.8725 17 10 C14.525 9.01 14.525 9.01 12 8 C12 7.67 12 7.34 12 7 C14.64 7 17.28 7 20 7 C20.144375 7.78375 20.28875 8.5675 20.4375 9.375 C20.87798925 11.96421018 20.87798925 11.96421018 22 14 C19.98177083 13.70703125 17.96354167 13.4140625 15.9453125 13.12109375 C13.91859333 12.8315703 13.91859333 12.8315703 12 14 C13.27617187 14.27714844 14.55234375 14.55429687 15.8671875 14.83984375 C17.53648893 15.20558957 19.2057581 15.57148262 20.875 15.9375 C21.71675781 16.11990234 22.55851562 16.30230469 23.42578125 16.49023438 C24.23144531 16.66748047 25.03710938 16.84472656 25.8671875 17.02734375 C26.98262939 17.27085571 26.98262939 17.27085571 28.12060547 17.51928711 C30 18 30 18 32 19 C32 19.66 32 20.32 32 21 C32.99 21.33 33.98 21.66 35 22 C34.34 22 33.68 22 33 22 C33 22.66 33 23.32 33 24 C32.01 24 31.02 24 30 24 C30 24.66 30 25.32 30 26 C27.03 25.34 24.06 24.68 21 24 C21 24.66 21 25.32 21 26 C19.68 26.33 18.36 26.66 17 27 C17.37253906 27.55429688 17.74507812 28.10859375 18.12890625 28.6796875 C18.60199219 29.40414062 19.07507813 30.12859375 19.5625 30.875 C20.03816406 31.59429687 20.51382813 32.31359375 21.00390625 33.0546875 C21.33261719 33.69664063 21.66132812 34.33859375 22 35 C21.67 35.66 21.34 36.32 21 37 C15.25 32.375 15.25 32.375 13 29 C12.34 29.66 11.68 30.32 11 31 C10.67 28.69 10.34 26.38 10 24 C9.34 24.66 8.68 25.32 8 26 C3.11235955 21.43820225 3.11235955 21.43820225 2 18 C2.29752496 15.02475039 2.66120597 12.67758805 4 10 C3.34 9.67 2.68 9.34 2 9 C1.3671875 6.93359375 1.3671875 6.93359375 0.875 4.4375 C0.70742188 3.61121094 0.53984375 2.78492188 0.3671875 1.93359375 C0.24601562 1.29550781 0.12484375 0.65742187 0 0 Z " fill="#C7BAAB" transform="translate(16,39)"/>
<path d="M0 0 C0.99 0.66 1.98 1.32 3 2 C2.34 2 1.68 2 1 2 C0.67 5.3 0.34 8.6 0 12 C2.1965625 11.9690625 2.1965625 11.9690625 4.4375 11.9375 C5.95832518 11.91607993 7.48071962 11.92820036 9 12 C9.33 12.33 9.66 12.66 10 13 C10.515625 12.835 11.03125 12.67 11.5625 12.5 C15.18810219 11.75628673 18.34801854 12.45220278 22 13 C21.67 13.99 21.34 14.98 21 16 C20.2575 16.12375 19.515 16.2475 18.75 16.375 C15.16177975 17.1905046 12.56630394 18.65469272 9.4375 20.5625 C6.78660128 22.12585053 4.45182486 22.91183905 1.4375 23.5 C-0.99414942 23.88942398 -0.99414942 23.88942398 -3 25 C-4.99960012 25.039992 -7.00047242 25.04346799 -9 25 C-10.52448631 22.0173094 -11.93940067 19.181798 -13 16 C-13.66 15.67 -14.32 15.34 -15 15 C-10.5 11 -10.5 11 -6 11 C-4.45685931 9.36050622 -4.45685931 9.36050622 -3.3125 7.1875 C-2.89613281 6.47980469 -2.47976562 5.77210937 -2.05078125 5.04296875 C-0.88001768 2.89455908 -0.88001768 2.89455908 0 0 Z " fill="#DDD0C1" transform="translate(47,30)"/>
<path d="M0 0 C-0.4410161 4.85117708 -2.55532087 8.61962155 -6 12 C-9.125 12.75 -9.125 12.75 -12 13 C-12.53625 13.53625 -13.0725 14.0725 -13.625 14.625 C-14.07875 15.07875 -14.5325 15.5325 -15 16 C-18.47970268 15.76801982 -21.11502066 13.84318124 -24 12 C-23.67 11.34 -23.34 10.68 -23 10 C-20.36 10.99 -17.72 11.98 -15 13 C-15.33 12.01 -15.66 11.02 -16 10 C-13.06397994 5.76867698 -11.00459422 3.53987514 -6 2 C-4.9171875 1.443125 -4.9171875 1.443125 -3.8125 0.875 C-2 0 -2 0 0 0 Z " fill="#FAFAF7" transform="translate(47,30)"/>
<path d="M0 0 C6.15234375 -0.09765625 6.15234375 -0.09765625 8 0 C8.33 0.33 8.66 0.66 9 1 C9.515625 0.835 10.03125 0.67 10.5625 0.5 C14.18810219 -0.24371327 17.34801854 0.45220278 21 1 C20.67 1.99 20.34 2.98 20 4 C19.2575 4.12375 18.515 4.2475 17.75 4.375 C14.12555485 5.19873753 11.52384702 6.67571375 8.375 8.625 C6 10 6 10 4 10 C4 9.34 4 8.68 4 8 C4.99 7.67 5.98 7.34 7 7 C3.7 7 0.4 7 -3 7 C-2.505 6.21625 -2.01 5.4325 -1.5 4.625 C0.16537965 2.21447673 0.16537965 2.21447673 0 0 Z " fill="#DED1C2" transform="translate(48,42)"/>
<path d="M0 0 C6.57534861 0.62031591 12.66692592 2.14897283 19 4 C19 4.66 19 5.32 19 6 C19.99 6.33 20.98 6.66 22 7 C21.34 7 20.68 7 20 7 C20 7.66 20 8.32 20 9 C19.01 9 18.02 9 17 9 C17 9.66 17 10.32 17 11 C14.69 10.34 12.38 9.68 10 9 C9.67 7.68 9.34 6.36 9 5 C8.01 5.33 7.02 5.66 6 6 C4.66431979 5.67619874 3.33076989 5.34342449 2 5 C1.01 5.495 1.01 5.495 0 6 C0 4.02 0 2.04 0 0 Z " fill="#A4907A" transform="translate(29,54)"/>
<path d="M0 0 C4.95 0 9.9 0 15 0 C14 3 14 3 12.375 4 C10.42095353 4.82275641 8.46122214 5.63199805 6.5 6.4375 C3.56950995 7.74575449 1.49693069 9.05794279 -1 11 C-1.66 11 -2.32 11 -3 11 C-3 10.01 -3 9.02 -3 8 C-4.65 7.67 -6.3 7.34 -8 7 C-4.25 5 -4.25 5 -2 5 C-1.34 3.35 -0.68 1.7 0 0 Z " fill="#E8D8C8" transform="translate(51,23)"/>
<path d="M0 0 C0.33 0.99 0.66 1.98 1 3 C0.67 3.66 0.34 4.32 0 5 C-0.23274209 7.87910588 -0.41972757 10.74146495 -0.5625 13.625 C-0.60568359 14.42679688 -0.64886719 15.22859375 -0.69335938 16.0546875 C-0.79951457 18.0362511 -0.90026855 20.01810271 -1 22 C-1.66 22.33 -2.32 22.66 -3 23 C-3.33 23.99 -3.66 24.98 -4 26 C-6.82059747 24.58970126 -6.98101714 22.92108419 -8 20 C-8.22292725 19.36481445 -8.44585449 18.72962891 -8.67553711 18.07519531 C-9.09241837 15.40891186 -8.48528714 14.41336446 -7.12890625 12.109375 C-6.71962891 11.40039062 -6.31035156 10.69140625 -5.88867188 9.9609375 C-5.45103516 9.23132812 -5.01339844 8.50171875 -4.5625 7.75 C-3.9118457 6.63238281 -3.9118457 6.63238281 -3.24804688 5.4921875 C-2.1763557 3.65500263 -1.08960023 1.82662026 0 0 Z " fill="#D0C0AF" transform="translate(39,3)"/>
<path d="M0 0 C0.33 0.99 0.66 1.98 1 3 C4.24141878 4.38917948 6.64506969 3.68819083 10 3 C10.99 3.33 11.98 3.66 13 4 C13.33 4.99 13.66 5.98 14 7 C13.01 7.33 12.02 7.66 11 8 C11.33 8.66 11.66 9.32 12 10 C10.68 10.33 9.36 10.66 8 11 C8.55880859 11.83144531 8.55880859 11.83144531 9.12890625 12.6796875 C9.60199219 13.40414062 10.07507812 14.12859375 10.5625 14.875 C11.03816406 15.59429687 11.51382813 16.31359375 12.00390625 17.0546875 C12.33261719 17.69664063 12.66132812 18.33859375 13 19 C12.67 19.66 12.34 20.32 12 21 C6.84315279 17.30052265 5.64225833 15.24058166 4 9 C2.76421005 7.29927647 2.76421005 7.29927647 1.3125 5.75 C0.549375 4.8425 -0.21375 3.935 -1 3 C-0.67 2.01 -0.34 1.02 0 0 Z " fill="#C7B7A4" transform="translate(25,55)"/>
<path d="M0 0 C0.66 0.33 1.32 0.66 2 1 C2 1.66 2 2.32 2 3 C4.475 3.99 4.475 3.99 7 5 C6.814375 5.61875 6.62875 6.2375 6.4375 6.875 C5.76313824 9.04160178 5.76313824 9.04160178 7 11 C10.02934491 11.65772428 10.02934491 11.65772428 13 12 C12.649375 12.5775 12.29875 13.155 11.9375 13.75 C10.85082593 16.35801776 11.06934867 17.39417629 12 20 C11.34 19.67 10.68 19.34 10 19 C9.34 19.66 8.68 20.32 8 21 C7.67 18.69 7.34 16.38 7 14 C6.34 14.66 5.68 15.32 5 16 C0.11235955 11.43820225 0.11235955 11.43820225 -1 8 C-0.625 4.875 -0.625 4.875 0 2 C0 1.34 0 0.68 0 0 Z " fill="#B5A18B" transform="translate(19,49)"/>
<path d="M0 0 C1.46726798 3.81489674 0.43336419 6.29011622 -1 10 C-0.01 9.67 0.98 9.34 2 9 C2.33 9.99 2.66 10.98 3 12 C4.65848177 13.01351664 6.32665961 14.01120795 8 15 C9.7041054 16.62836738 11.38025441 18.28769752 13 20 C10.03 19.67 7.06 19.34 4 19 C3.67 18.01 3.34 17.02 3 16 C0.52869082 14.84478498 0.52869082 14.84478498 -2 14 C-3 13 -3 13 -3.25 9.8125 C-2.98518881 5.77412943 -2.02444992 3.45843529 0 0 Z " fill="#E0D6CA" transform="translate(21,30)"/>
<path d="M0 0 C0.33 0 0.66 0 1 0 C1.36259585 3.89790543 1.34827888 5.52111654 -1 8.75 C-1.99 9.86375 -1.99 9.86375 -3 11 C-3 11.66 -3 12.32 -3 13 C-5.97 12.01 -8.94 11.02 -12 10 C-11.67 9.34 -11.34 8.68 -11 8 C-10.34 8.33 -9.68 8.66 -9 9 C-9 7.35 -9 5.7 -9 4 C-3.375 2.875 -3.375 2.875 0 4 C-0.33 3.01 -0.66 2.02 -1 1 C-0.67 0.67 -0.34 0.34 0 0 Z " fill="#C2AB92" transform="translate(35,30)"/>
<path d="M0 0 C0.99 0.66 1.98 1.32 3 2 C2.34 2 1.68 2 1 2 C0.77754607 3.60226955 0.57253331 5.20696767 0.375 6.8125 C0.25898437 7.70582031 0.14296875 8.59914063 0.0234375 9.51953125 C-0.23500743 12.25690391 -0.23500743 12.25690391 2 15 C1.01 15 0.02 15 -1 15 C-2.5159375 15.061875 -2.5159375 15.061875 -4.0625 15.125 C-7 15 -7 15 -9 13 C-8.2575 12.34 -7.515 11.68 -6.75 11 C-3.53819246 7.82479426 -1.81524279 4.08683153 0 0 Z " fill="#CABCAB" transform="translate(47,30)"/>
<path d="M0 0 C0.33 0 0.66 0 1 0 C1.05389087 1.95803507 1.09274217 3.91648909 1.125 5.875 C1.14820313 6.96554688 1.17140625 8.05609375 1.1953125 9.1796875 C1 12 1 12 -1 14 C-1.69748583 15.31747324 -2.36959957 16.64914193 -3 18 C-5.50268382 14.24597427 -5.13139147 12.60105588 -4.5546875 8.296875 C-3.72014962 4.84118294 -2.24583985 2.73711731 0 0 Z " fill="#B6A08A" transform="translate(52,11)"/>
<path d="M0 0 C4.29 0 8.58 0 13 0 C12.67 0.99 12.34 1.98 12 3 C9.93359375 3.73046875 9.93359375 3.73046875 7.4375 4.1875 C6.61121094 4.34605469 5.78492188 4.50460938 4.93359375 4.66796875 C3.97646484 4.83232422 3.97646484 4.83232422 3 5 C3 4.34 3 3.68 3 3 C1.68 2.67 0.36 2.34 -1 2 C-0.67 1.34 -0.34 0.68 0 0 Z " fill="#C6BBAC" transform="translate(53,23)"/>
<path d="M0 0 C2.31 0.33 4.62 0.66 7 1 C7 1.66 7 2.32 7 3 C7.99 3.33 8.98 3.66 10 4 C9.34 4 8.68 4 8 4 C8 4.66 8 5.32 8 6 C7.01 6 6.02 6 5 6 C5 6.66 5 7.32 5 8 C2.69 7.34 0.38 6.68 -2 6 C-1.34 5.01 -0.68 4.02 0 3 C0 3.99 0 4.98 0 6 C0.66 6 1.32 6 2 6 C1.67 4.68 1.34 3.36 1 2 C1.66 2 2.32 2 3 2 C3 2.99 3 3.98 3 5 C3.33 4.01 3.66 3.02 4 2 C2.68 1.34 1.36 0.68 0 0 Z " fill="#CAB9A6" transform="translate(41,57)"/>
<path d="M0 0 C3.96 0.33 7.92 0.66 12 1 C11.67 1.99 11.34 2.98 11 4 C6.3008219 5.01603851 2.6991781 5.01603851 -2 4 C-1.34 2.68 -0.68 1.36 0 0 Z " fill="#CBBDAE" transform="translate(57,42)"/>
<path d="M0 0 C1.65 0 3.3 0 5 0 C0.08928571 8.25892857 0.08928571 8.25892857 -5 10 C-5 8.02 -5 6.04 -5 4 C-3.35 3.34 -1.7 2.68 0 2 C0 1.34 0 0.68 0 0 Z " fill="#FBF7F2" transform="translate(52,30)"/>
<path d="M0 0 C2.0625 1.375 2.0625 1.375 4 3 C5.32294355 3.68705356 6.65513039 4.35692306 8 5 C2.39538469 4.57910004 -2.72086547 4.08386889 -8 2 C-4.74236778 -0.17175481 -3.77560787 -0.46043998 0 0 Z " fill="#F9F0E6" transform="translate(35,51)"/>
<path d="M0 0 C0.99 0 1.98 0 3 0 C2.33333333 3.33333333 1.66666667 6.66666667 1 10 C-0.32 9.34 -1.64 8.68 -3 8 C-1.125 2.25 -1.125 2.25 0 0 Z " fill="#E0D8CE" transform="translate(25,29)"/>
<path d="M0 0 C0.66 0.33 1.32 0.66 2 1 C2.625 3.5625 2.625 3.5625 3 6 C2.01 6.495 2.01 6.495 1 7 C0.67 7.99 0.34 8.98 0 10 C-2.7839183 8.60804085 -2.97898997 6.84424221 -4 4 C-3.01 3.67 -2.02 3.34 -1 3 C-1.33 2.34 -1.66 1.68 -2 1 C-1.34 0.67 -0.68 0.34 0 0 Z " fill="#E9DDCF" transform="translate(35,19)"/>
<path d="M0 0 C0.33 0.99 0.66 1.98 1 3 C2.91666667 3.83333333 2.91666667 3.83333333 5 4 C5.66 3.67 6.32 3.34 7 3 C7.66 4.32 8.32 5.64 9 7 C8 8 8 8 5.6875 8.375 C3 8 3 8 0.625 5.6875 C0.08875 4.800625 -0.4475 3.91375 -1 3 C-0.67 2.01 -0.34 1.02 0 0 Z " fill="#F3EAE1" transform="translate(25,55)"/>
<path d="M0 0 C2 1 2 1 2.875 2.9375 C4.22909764 5.42001234 5.42178493 5.96871397 8 7 C7.34 8.32 6.68 9.64 6 11 C4.078125 10.2890625 4.078125 10.2890625 2 9 C1.171875 6.8359375 1.171875 6.8359375 0.75 4.375 C0.60046875 3.55773438 0.4509375 2.74046875 0.296875 1.8984375 C0.19890625 1.27195313 0.1009375 0.64546875 0 0 Z " fill="#B6A18C" transform="translate(16,39)"/>
<path d="M0 0 C1.22589844 0.01353516 1.22589844 0.01353516 2.4765625 0.02734375 C3.41628906 0.04474609 3.41628906 0.04474609 4.375 0.0625 C3.375 2.0625 3.375 2.0625 1 3.1875 C-1.625 4.0625 -1.625 4.0625 -4.625 4.0625 C-4.625 3.4025 -4.625 2.7425 -4.625 2.0625 C-5.285 1.7325 -5.945 1.4025 -6.625 1.0625 C-4.21954362 -0.14022819 -2.67503047 -0.03821472 0 0 Z " fill="#BBAA97" transform="translate(51.625,47.9375)"/>
<path d="M0 0 C0.99 0.495 0.99 0.495 2 1 C2 1.66 2 2.32 2 3 C4.475 3.99 4.475 3.99 7 5 C4.94766315 7.2477975 3.99332739 8.0022242 1 9 C0.67 6.03 0.34 3.06 0 0 Z " fill="#957551" transform="translate(19,49)"/>
<path d="M0 0 C0 0.66 0 1.32 0 2 C1.32 2.33 2.64 2.66 4 3 C3.21625 3.144375 2.4325 3.28875 1.625 3.4375 C-0.96421018 3.87798925 -0.96421018 3.87798925 -3 5 C-4.67654729 4.72057545 -6.34608154 4.39171753 -8 4 C-2.7826087 0 -2.7826087 0 0 0 Z " fill="#DECCB8" transform="translate(47,50)"/>
<path d="M0 0 C3.6875 0.875 3.6875 0.875 7 2 C7 2.99 7 3.98 7 5 C3.28111761 4.49287967 0.26545761 3.88391785 -3 2 C-2.01 1.34 -1.02 0.68 0 0 Z " fill="#BAA793" transform="translate(41,41)"/>
<path d="M0 0 C3.625 0.375 3.625 0.375 7 1 C7.33 1.99 7.66 2.98 8 4 C6.35 4.66 4.7 5.32 3 6 C3 5.01 3 4.02 3 3 C1.35 2.67 -0.3 2.34 -2 2 C-1.34 1.34 -0.68 0.68 0 0 Z " fill="#EEDFCE" transform="translate(45,28)"/>
<path d="M0 0 C3.375 0.3125 3.375 0.3125 7 1 C7.66 1.99 8.32 2.98 9 4 C6.03 3.67 3.06 3.34 0 3 C0 2.01 0 1.02 0 0 Z " fill="#FAF3EA" transform="translate(25,46)"/>
<path d="M0 0 C0 0.66 0 1.32 0 2 C-0.66 2 -1.32 2 -2 2 C-2.33 2.99 -2.66 3.98 -3 5 C-3.66 5 -4.32 5 -5 5 C-5.33 5.66 -5.66 6.32 -6 7 C-6 6.34 -6 5.68 -6 5 C-6.66 4.67 -7.32 4.34 -8 4 C-3.375 0 -3.375 0 0 0 Z " fill="#D7D1CB" transform="translate(40,41)"/>
<path d="M0 0 C1.9375 0.3125 1.9375 0.3125 4 1 C4.33 1.99 4.66 2.98 5 4 C4.01 4 3.02 4 2 4 C1.67 4.66 1.34 5.32 1 6 C-0.65 6 -2.3 6 -4 6 C-3.525625 5.566875 -3.05125 5.13375 -2.5625 4.6875 C-0.76313043 2.97690387 -0.76313043 2.97690387 0 0 Z " fill="#D9C5AE" transform="translate(34,58)"/>
<path d="M0 0 C1.9375 0.6875 1.9375 0.6875 4 2 C4.75 4.625 4.75 4.625 5 7 C4.34 6.67 3.68 6.34 3 6 C2.34 6.66 1.68 7.32 1 8 C0 1.125 0 1.125 0 0 Z " fill="#9F7955" transform="translate(26,62)"/>
<path d="M0 0 C0.8677564 2.42971792 1.20863003 3.5380335 0.125 5.9375 C-0.24625 6.618125 -0.6175 7.29875 -1 8 C-1.37668344 9.65740715 -1.72057545 11.32345271 -2 13 C-2.33 13 -2.66 13 -3 13 C-3.31563182 7.73946963 -2.66590937 4.55426184 0 0 Z " fill="#D3C2B0" transform="translate(21,30)"/>
<path d="M0 0 C2.64 0.66 5.28 1.32 8 2 C8.33 3.32 8.66 4.64 9 6 C6.525 5.01 6.525 5.01 4 4 C4 3.34 4 2.68 4 2 C3.01 2.33 2.02 2.66 1 3 C0.67 2.01 0.34 1.02 0 0 Z " fill="#8D7055" transform="translate(34,57)"/>
<path d="M0 0 C1.32 0.66 2.64 1.32 4 2 C3.67 2.33 3.34 2.66 3 3 C3.66 3.33 4.32 3.66 5 4 C5 4.66 5 5.32 5 6 C2.36 5.34 -0.28 4.68 -3 4 C-2.01 3.34 -1.02 2.68 0 2 C0 1.34 0 0.68 0 0 Z " fill="#E1C8B0" transform="translate(27,37)"/>
<path d="M0 0 C0.97110486 3.02121511 1.13617383 5.00463263 0 8 C-0.99 8.495 -0.99 8.495 -2 9 C-2.6875 7.3125 -2.6875 7.3125 -3 5 C-1.5625 2.25 -1.5625 2.25 0 0 Z " fill="#D8CABE" transform="translate(51,12)"/>
<path d="M0 0 C0.99 0.33 1.98 0.66 3 1 C3.33 3.31 3.66 5.62 4 8 C2.0625 7.25 2.0625 7.25 0 6 C-0.8125 4 -0.8125 4 -1 2 C-0.67 1.34 -0.34 0.68 0 0 Z " fill="#D8C4AE" transform="translate(19,55)"/>
</svg>
